<!--?xml version="1.0" encoding="us-ascii" standalone="no"?--><svg xmlns="http://www.w3.org/2000/svg" xmlns:xlink="http://www.w3.org/1999/xlink" contentstyletype="text/css" height="298px" preserveAspectRatio="none" style="width:374px;height:298px;background:#FFFFFF;" version="1.1" viewBox="0 0 374 298" width="374px" zoomAndPan="magnify"><defs></defs><g><line style="stroke:#181818;stroke-width:0.5;stroke-dasharray:5.0,5.0;" x1="24" x2="24" y1="81.2969" y2="217.8281"></line><line style="stroke:#181818;stroke-width:0.5;stroke-dasharray:5.0,5.0;" x1="205" x2="205" y1="81.2969" y2="217.8281"></line><line style="stroke:#181818;stroke-width:0.5;stroke-dasharray:5.0,5.0;" x1="337" x2="337" y1="81.2969" y2="217.8281"></line><text fill="#000000" font-family="sans-serif" font-size="14" lengthAdjust="spacing" textLength="32" x="5" y="77.9951">User</text><ellipse cx="24" cy="13.5" fill="#E2E2F0" rx="8" ry="8" style="stroke:#181818;stroke-width:0.5;"></ellipse><path d="M24,21.5 L24,48.5 M11,29.5 L37,29.5 M24,48.5 L11,63.5 M24,48.5 L37,63.5 " fill="none" style="stroke:#181818;stroke-width:0.5;"></path><text fill="#000000" font-family="sans-serif" font-size="14" lengthAdjust="spacing" textLength="32" x="5" y="229.8232">User</text><ellipse cx="24" cy="241.625" fill="#E2E2F0" rx="8" ry="8" style="stroke:#181818;stroke-width:0.5;"></ellipse><path d="M24,249.625 L24,276.625 M11,257.625 L37,257.625 M24,276.625 L11,291.625 M24,276.625 L37,291.625 " fill="none" style="stroke:#181818;stroke-width:0.5;"></path><rect fill="#E2E2F0" height="30.2969" rx="2.5" ry="2.5" style="stroke:#181818;stroke-width:0.5;" width="58" x="176" y="50"></rect><text fill="#000000" font-family="sans-serif" font-size="14" lengthAdjust="spacing" textLength="44" x="183" y="69.9951">Server</text><rect fill="#E2E2F0" height="30.2969" rx="2.5" ry="2.5" style="stroke:#181818;stroke-width:0.5;" width="58" x="176" y="216.8281"></rect><text fill="#000000" font-family="sans-serif" font-size="14" lengthAdjust="spacing" textLength="44" x="183" y="236.8232">Server</text><text fill="#000000" font-family="sans-serif" font-size="14" lengthAdjust="spacing" textLength="66" x="301" y="77.9951">Database</text><path d="M319,29 C319,19 337,19 337,19 C337,19 355,19 355,29 L355,55 C355,65 337,65 337,65 C337,65 319,65 319,55 L319,29 " fill="#E2E2F0" style="stroke:#181818;stroke-width:1.5;"></path><path d="M319,29 C319,39 337,39 337,39 C337,39 355,39 355,29 " fill="none" style="stroke:#181818;stroke-width:1.5;"></path><text fill="#000000" font-family="sans-serif" font-size="14" lengthAdjust="spacing" textLength="66" x="301" y="229.8232">Database</text><path d="M319,243.125 C319,233.125 337,233.125 337,233.125 C337,233.125 355,233.125 355,243.125 L355,269.125 C355,279.125 337,279.125 337,279.125 C337,279.125 319,279.125 319,269.125 L319,243.125 " fill="#E2E2F0" style="stroke:#181818;stroke-width:1.5;"></path><path d="M319,243.125 C319,253.125 337,253.125 337,253.125 C337,253.125 355,253.125 355,243.125 " fill="none" style="stroke:#181818;stroke-width:1.5;"></path><polygon fill="#181818" points="193,108.4297,203,112.4297,193,116.4297,197,112.4297" style="stroke:#181818;stroke-width:1.0;"></polygon><line style="stroke:#181818;stroke-width:1.0;" x1="24" x2="199" y1="112.4297" y2="112.4297"></line><text fill="#000000" font-family="sans-serif" font-size="13" lengthAdjust="spacing" textLength="157" x="31" y="107.3638">Enter registration details</text><polygon fill="#181818" points="325,137.5625,335,141.5625,325,145.5625,329,141.5625" style="stroke:#181818;stroke-width:1.0;"></polygon><line style="stroke:#181818;stroke-width:1.0;" x1="205" x2="331" y1="141.5625" y2="141.5625"></line><text fill="#000000" font-family="sans-serif" font-size="13" lengthAdjust="spacing" textLength="100" x="212" y="136.4966">Store user data</text><polygon fill="#181818" points="216,166.6953,206,170.6953,216,174.6953,212,170.6953" style="stroke:#181818;stroke-width:1.0;"></polygon><line style="stroke:#181818;stroke-width:1.0;" x1="210" x2="336" y1="170.6953" y2="170.6953"></line><text fill="#000000" font-family="sans-serif" font-size="13" lengthAdjust="spacing" textLength="108" x="222" y="165.6294">User data stored</text><polygon fill="#181818" points="35,195.8281,25,199.8281,35,203.8281,31,199.8281" style="stroke:#181818;stroke-width:1.0;"></polygon><line style="stroke:#181818;stroke-width:1.0;" x1="29" x2="204" y1="199.8281" y2="199.8281"></line><text fill="#000000" font-family="sans-serif" font-size="13" lengthAdjust="spacing" textLength="140" x="41" y="194.7622">Registration complete</text><!--SRC=[JOt13S8m34NlcU8lm08zS885g3g0IQmgKaaYsp0_3afHJhRydz-dQ5MmAKje99PZRbGCAyl7JucCdgICsrX29t6v3W0BxiLy2kzPJSXoBKXib0yDWt7wV7T-zJx6kskwFVoZMRgTCRJZQLBzeWMFkJ3MLplO-0i0]--></g></svg>